<svg version="1.1" xmlns="http://www.w3.org/2000/svg" xmlns:xlink="http://www.w3.org/1999/xlink" width="516.72509765625" height="444"><defs/><g><g transform="translate(-142,-118) scale(1,1)"><rect fill="#C0C0C0" stroke="none" x="159" y="135" width="185.51416015625" height="150" opacity="0.2"/></g><g transform="translate(-142,-118) scale(1,1)"><rect fill="#ffffff" stroke="none" x="152" y="128" width="185.51416015625" height="150"/></g><g transform="translate(-142,-118) scale(1,1)"><path fill="none" stroke="#000000" d="M 152 128 L 337.51416015625 128 L 337.51416015625 278 L 152 278 L 152 128 Z Z" stroke-miterlimit="10"/></g><g transform="translate(-142,-118) scale(1,1)"><path fill="none" stroke="#000000" d="M 152 151 L 337.51416015625 151" stroke-miterlimit="10"/></g><g transform="translate(-142,-118) scale(1,1)"><path fill="none" stroke="#000000" d="M 180.05908203125 151 L 180.05908203125 278" stroke-miterlimit="10"/></g><g transform="translate(-142,-118) scale(1,1)"><path fill="none" stroke="#000000" d="M 264.47900390625 151 L 264.47900390625 278" stroke-miterlimit="10"/></g><g transform="translate(-142,-118) scale(1,1)"><g><path fill="none" stroke="none"/><text fill="#000000" stroke="none" font-family="Arial" font-size="13px" font-style="normal" font-weight="bold" text-decoration="none" x="224.8857421875" y="145.5">Events</text></g></g><g transform="translate(-142,-118) scale(1,1)"><g><path fill="none" stroke="none"/><text fill="#000000" stroke="none" font-family="Arial" font-size="13px" font-style="normal" font-weight="normal" text-decoration="none" x="157" y="169">PK</text></g></g><g transform="translate(-142,-118) scale(1,1)"><g><path fill="none" stroke="none"/><text fill="#000000" stroke="none" font-family="Arial" font-size="13px" font-style="normal" font-weight="normal" text-decoration="none" x="185.05908203125" y="169">ID</text></g></g><g transform="translate(-142,-118) scale(1,1)"><g><path fill="none" stroke="none"/><text fill="#000000" stroke="none" font-family="Arial" font-size="13px" font-style="normal" font-weight="normal" text-decoration="none" x="269.47900390625" y="169"></text></g></g><g transform="translate(-142,-118) scale(1,1)"><g><path fill="none" stroke="none"/><text fill="#000000" stroke="none" font-family="Arial" font-size="13px" font-style="normal" font-weight="normal" text-decoration="none" x="157" y="168.5"></text></g></g><g transform="translate(-142,-118) scale(1,1)"><g><path fill="none" stroke="none"/><text fill="#000000" stroke="none" font-family="Arial" font-size="13px" font-style="normal" font-weight="normal" text-decoration="none" x="157" y="184"></text></g></g><g transform="translate(-142,-118) scale(1,1)"><g><path fill="none" stroke="none"/><text fill="#000000" stroke="none" font-family="Arial" font-size="13px" font-style="normal" font-weight="normal" text-decoration="none" x="185.05908203125" y="184">year</text></g></g><g transform="translate(-142,-118) scale(1,1)"><g><path fill="none" stroke="none"/><text fill="#000000" stroke="none" font-family="Arial" font-size="13px" font-style="normal" font-weight="normal" text-decoration="none" x="269.47900390625" y="184">DATE</text></g></g><g transform="translate(-142,-118) scale(1,1)"><g><path fill="none" stroke="none"/><text fill="#000000" stroke="none" font-family="Arial" font-size="13px" font-style="normal" font-weight="normal" text-decoration="none" x="157" y="183.5"></text></g></g><g transform="translate(-142,-118) scale(1,1)"><g><path fill="none" stroke="none"/><text fill="#000000" stroke="none" font-family="Arial" font-size="13px" font-style="normal" font-weight="normal" text-decoration="none" x="157" y="199"></text></g></g><g transform="translate(-142,-118) scale(1,1)"><g><path fill="none" stroke="none"/><text fill="#000000" stroke="none" font-family="Arial" font-size="13px" font-style="normal" font-weight="normal" text-decoration="none" x="185.05908203125" y="199">country</text></g></g><g transform="translate(-142,-118) scale(1,1)"><g><path fill="none" stroke="none"/><text fill="#000000" stroke="none" font-family="Arial" font-size="13px" font-style="normal" font-weight="normal" text-decoration="none" x="269.47900390625" y="199">VARCHAR</text></g></g><g transform="translate(-142,-118) scale(1,1)"><g><path fill="none" stroke="none"/><text fill="#000000" stroke="none" font-family="Arial" font-size="13px" font-style="normal" font-weight="normal" text-decoration="none" x="157" y="198.5"></text></g></g><g transform="translate(-142,-118) scale(1,1)"><g><path fill="none" stroke="none"/><text fill="#000000" stroke="none" font-family="Arial" font-size="13px" font-style="normal" font-weight="normal" text-decoration="none" x="157" y="214"></text></g></g><g transform="translate(-142,-118) scale(1,1)"><g><path fill="none" stroke="none"/><text fill="#000000" stroke="none" font-family="Arial" font-size="13px" font-style="normal" font-weight="normal" text-decoration="none" x="185.05908203125" y="214">city</text></g></g><g transform="translate(-142,-118) scale(1,1)"><g><path fill="none" stroke="none"/><text fill="#000000" stroke="none" font-family="Arial" font-size="13px" font-style="normal" font-weight="normal" text-decoration="none" x="269.47900390625" y="214">VARCHAR</text></g></g><g transform="translate(-142,-118) scale(1,1)"><g><path fill="none" stroke="none"/><text fill="#000000" stroke="none" font-family="Arial" font-size="13px" font-style="normal" font-weight="normal" text-decoration="none" x="157" y="213.5"></text></g></g><g transform="translate(-142,-118) scale(1,1)"><g><path fill="none" stroke="none"/><text fill="#000000" stroke="none" font-family="Arial" font-size="13px" font-style="normal" font-weight="normal" text-decoration="none" x="157" y="229"></text></g></g><g transform="translate(-142,-118) scale(1,1)"><g><path fill="none" stroke="none"/><text fill="#000000" stroke="none" font-family="Arial" font-size="13px" font-style="normal" font-weight="normal" text-decoration="none" x="185.05908203125" y="229">location</text></g></g><g transform="translate(-142,-118) scale(1,1)"><g><path fill="none" stroke="none"/><text fill="#000000" stroke="none" font-family="Arial" font-size="13px" font-style="normal" font-weight="normal" text-decoration="none" x="269.47900390625" y="229">VARCHAR</text></g></g><g transform="translate(-142,-118) scale(1,1)"><g><path fill="none" stroke="none"/><text fill="#000000" stroke="none" font-family="Arial" font-size="13px" font-style="normal" font-weight="normal" text-decoration="none" x="157" y="228.5"></text></g></g><g transform="translate(-142,-118) scale(1,1)"><g><path fill="none" stroke="none"/><text fill="#000000" stroke="none" font-family="Arial" font-size="13px" font-style="normal" font-weight="normal" text-decoration="none" x="157" y="244"></text></g></g><g transform="translate(-142,-118) scale(1,1)"><g><path fill="none" stroke="none"/><text fill="#000000" stroke="none" font-family="Arial" font-size="13px" font-style="normal" font-weight="normal" text-decoration="none" x="185.05908203125" y="244">broadcaster</text></g></g><g transform="translate(-142,-118) scale(1,1)"><g><path fill="none" stroke="none"/><text fill="#000000" stroke="none" font-family="Arial" font-size="13px" font-style="normal" font-weight="normal" text-decoration="none" x="269.47900390625" y="244">VARCHAR</text></g></g><g transform="translate(-142,-118) scale(1,1)"><g><path fill="none" stroke="none"/><text fill="#000000" stroke="none" font-family="Arial" font-size="13px" font-style="normal" font-weight="normal" text-decoration="none" x="157" y="243.5"></text></g></g><g transform="translate(-142,-118) scale(1,1)"><g><path fill="none" stroke="none"/><text fill="#000000" stroke="none" font-family="Arial" font-size="13px" font-style="normal" font-weight="normal" text-decoration="none" x="157" y="259"></text></g></g><g transform="translate(-142,-118) scale(1,1)"><g><path fill="none" stroke="none"/><text fill="#000000" stroke="none" font-family="Arial" font-size="13px" font-style="normal" font-weight="normal" text-decoration="none" x="185.05908203125" y="259">date</text></g></g><g transform="translate(-142,-118) scale(1,1)"><g><path fill="none" stroke="none"/><text fill="#000000" stroke="none" font-family="Arial" font-size="13px" font-style="normal" font-weight="normal" text-decoration="none" x="269.47900390625" y="259">DATE</text></g></g><g transform="translate(-142,-118) scale(1,1)"><g><path fill="none" stroke="none"/><text fill="#000000" stroke="none" font-family="Arial" font-size="13px" font-style="normal" font-weight="normal" text-decoration="none" x="157" y="258.5"></text></g></g><g transform="translate(-142,-118) scale(1,1)"><g><path fill="none" stroke="none"/><text fill="#000000" stroke="none" font-family="Arial" font-size="13px" font-style="normal" font-weight="normal" text-decoration="none" x="157" y="274"></text></g></g><g transform="translate(-142,-118) scale(1,1)"><g><path fill="none" stroke="none"/><text fill="#000000" stroke="none" font-family="Arial" font-size="13px" font-style="normal" font-weight="normal" text-decoration="none" x="185.05908203125" y="274">durability</text></g></g><g transform="translate(-142,-118) scale(1,1)"><g><path fill="none" stroke="none"/><text fill="#000000" stroke="none" font-family="Arial" font-size="13px" font-style="normal" font-weight="normal" text-decoration="none" x="269.47900390625" y="274">TIME</text></g></g><g transform="translate(-142,-118) scale(1,1)"><g><path fill="none" stroke="none"/><text fill="#000000" stroke="none" font-family="Arial" font-size="13px" font-style="normal" font-weight="normal" text-decoration="none" x="157" y="273.5"></text></g></g><g transform="translate(-142,-118) scale(1,1)"><rect fill="#C0C0C0" stroke="none" x="471" y="151" width="169.61328125" height="120" opacity="0.2"/></g><g transform="translate(-142,-118) scale(1,1)"><rect fill="#ffffff" stroke="none" x="464" y="144" width="169.61328125" height="120"/></g><g transform="translate(-142,-118) scale(1,1)"><path fill="none" stroke="#000000" d="M 464 144 L 633.61328125 144 L 633.61328125 264 L 464 264 L 464 144 Z Z" stroke-miterlimit="10"/></g><g transform="translate(-142,-118) scale(1,1)"><path fill="none" stroke="#000000" d="M 464 167 L 633.61328125 167" stroke-miterlimit="10"/></g><g transform="translate(-142,-118) scale(1,1)"><path fill="none" stroke="#000000" d="M 492.05908203125 167 L 492.05908203125 264" stroke-miterlimit="10"/></g><g transform="translate(-142,-118) scale(1,1)"><path fill="none" stroke="#000000" d="M 560.578125 167 L 560.578125 264" stroke-miterlimit="10"/></g><g transform="translate(-142,-118) scale(1,1)"><g><path fill="none" stroke="none"/><text fill="#000000" stroke="none" font-family="Arial" font-size="13px" font-style="normal" font-weight="bold" text-decoration="none" x="516.662109375" y="161.5">Performers</text></g></g><g transform="translate(-142,-118) scale(1,1)"><g><path fill="none" stroke="none"/><text fill="#000000" stroke="none" font-family="Arial" font-size="13px" font-style="normal" font-weight="normal" text-decoration="none" x="469" y="185">PK</text></g></g><g transform="translate(-142,-118) scale(1,1)"><g><path fill="none" stroke="none"/><text fill="#000000" stroke="none" font-family="Arial" font-size="13px" font-style="normal" font-weight="normal" text-decoration="none" x="497.05908203125" y="185">ID</text></g></g><g transform="translate(-142,-118) scale(1,1)"><g><path fill="none" stroke="none"/><text fill="#000000" stroke="none" font-family="Arial" font-size="13px" font-style="normal" font-weight="normal" text-decoration="none" x="565.578125" y="185"></text></g></g><g transform="translate(-142,-118) scale(1,1)"><g><path fill="none" stroke="none"/><text fill="#000000" stroke="none" font-family="Arial" font-size="13px" font-style="normal" font-weight="normal" text-decoration="none" x="469" y="184.5"></text></g></g><g transform="translate(-142,-118) scale(1,1)"><g><path fill="none" stroke="none"/><text fill="#000000" stroke="none" font-family="Arial" font-size="13px" font-style="normal" font-weight="normal" text-decoration="none" x="469" y="200"></text></g></g><g transform="translate(-142,-118) scale(1,1)"><g><path fill="none" stroke="none"/><text fill="#000000" stroke="none" font-family="Arial" font-size="13px" font-style="normal" font-weight="normal" text-decoration="none" x="497.05908203125" y="200">firstname</text></g></g><g transform="translate(-142,-118) scale(1,1)"><g><path fill="none" stroke="none"/><text fill="#000000" stroke="none" font-family="Arial" font-size="13px" font-style="normal" font-weight="normal" text-decoration="none" x="565.578125" y="200">VARCHAR</text></g></g><g transform="translate(-142,-118) scale(1,1)"><g><path fill="none" stroke="none"/><text fill="#000000" stroke="none" font-family="Arial" font-size="13px" font-style="normal" font-weight="normal" text-decoration="none" x="469" y="199.5"></text></g></g><g transform="translate(-142,-118) scale(1,1)"><g><path fill="none" stroke="none"/><text fill="#000000" stroke="none" font-family="Arial" font-size="13px" font-style="normal" font-weight="normal" text-decoration="none" x="469" y="215"></text></g></g><g transform="translate(-142,-118) scale(1,1)"><g><path fill="none" stroke="none"/><text fill="#000000" stroke="none" font-family="Arial" font-size="13px" font-style="normal" font-weight="normal" text-decoration="none" x="497.05908203125" y="215">lastname</text></g></g><g transform="translate(-142,-118) scale(1,1)"><g><path fill="none" stroke="none"/><text fill="#000000" stroke="none" font-family="Arial" font-size="13px" font-style="normal" font-weight="normal" text-decoration="none" x="565.578125" y="215">VARCHAR</text></g></g><g transform="translate(-142,-118) scale(1,1)"><g><path fill="none" stroke="none"/><text fill="#000000" stroke="none" font-family="Arial" font-size="13px" font-style="normal" font-weight="normal" text-decoration="none" x="469" y="214.5"></text></g></g><g transform="translate(-142,-118) scale(1,1)"><g><path fill="none" stroke="none"/><text fill="#000000" stroke="none" font-family="Arial" font-size="13px" font-style="normal" font-weight="normal" text-decoration="none" x="469" y="230"></text></g></g><g transform="translate(-142,-118) scale(1,1)"><g><path fill="none" stroke="none"/><text fill="#000000" stroke="none" font-family="Arial" font-size="13px" font-style="normal" font-weight="normal" text-decoration="none" x="497.05908203125" y="230">country</text></g></g><g transform="translate(-142,-118) scale(1,1)"><g><path fill="none" stroke="none"/><text fill="#000000" stroke="none" font-family="Arial" font-size="13px" font-style="normal" font-weight="normal" text-decoration="none" x="565.578125" y="230">VARCHAR</text></g></g><g transform="translate(-142,-118) scale(1,1)"><g><path fill="none" stroke="none"/><text fill="#000000" stroke="none" font-family="Arial" font-size="13px" font-style="normal" font-weight="normal" text-decoration="none" x="469" y="229.5"></text></g></g><g transform="translate(-142,-118) scale(1,1)"><g><path fill="none" stroke="none"/><text fill="#000000" stroke="none" font-family="Arial" font-size="13px" font-style="normal" font-weight="normal" text-decoration="none" x="469" y="245"></text></g></g><g transform="translate(-142,-118) scale(1,1)"><g><path fill="none" stroke="none"/><text fill="#000000" stroke="none" font-family="Arial" font-size="13px" font-style="normal" font-weight="normal" text-decoration="none" x="497.05908203125" y="245">gender</text></g></g><g transform="translate(-142,-118) scale(1,1)"><g><path fill="none" stroke="none"/><text fill="#000000" stroke="none" font-family="Arial" font-size="13px" font-style="normal" font-weight="normal" text-decoration="none" x="565.578125" y="245">VARCHAR</text></g></g><g transform="translate(-142,-118) scale(1,1)"><g><path fill="none" stroke="none"/><text fill="#000000" stroke="none" font-family="Arial" font-size="13px" font-style="normal" font-weight="normal" text-decoration="none" x="469" y="244.5"></text></g></g><g transform="translate(-142,-118) scale(1,1)"><rect fill="#C0C0C0" stroke="none" x="463" y="343" width="192.72509765625" height="105" opacity="0.2"/></g><g transform="translate(-142,-118) scale(1,1)"><rect fill="#ffffff" stroke="none" x="456" y="336" width="192.72509765625" height="105"/></g><g transform="translate(-142,-118) scale(1,1)"><path fill="none" stroke="#000000" d="M 456 336 L 648.72509765625 336 L 648.72509765625 441 L 456 441 L 456 336 Z Z" stroke-miterlimit="10"/></g><g transform="translate(-142,-118) scale(1,1)"><path fill="none" stroke="#000000" d="M 456 359 L 648.72509765625 359" stroke-miterlimit="10"/></g><g transform="translate(-142,-118) scale(1,1)"><path fill="none" stroke="#000000" d="M 484.05908203125 359 L 484.05908203125 441" stroke-miterlimit="10"/></g><g transform="translate(-142,-118) scale(1,1)"><path fill="none" stroke="#000000" d="M 574.2490234375 359 L 574.2490234375 441" stroke-miterlimit="10"/></g><g transform="translate(-142,-118) scale(1,1)"><g><path fill="none" stroke="none"/><text fill="#000000" stroke="none" font-family="Arial" font-size="13px" font-style="normal" font-weight="bold" text-decoration="none" x="533.93212890625" y="353.5">Songs</text></g></g><g transform="translate(-142,-118) scale(1,1)"><g><path fill="none" stroke="none"/><text fill="#000000" stroke="none" font-family="Arial" font-size="13px" font-style="normal" font-weight="normal" text-decoration="none" x="461" y="377">PK</text></g></g><g transform="translate(-142,-118) scale(1,1)"><g><path fill="none" stroke="none"/><text fill="#000000" stroke="none" font-family="Arial" font-size="13px" font-style="normal" font-weight="normal" text-decoration="none" x="489.05908203125" y="377">ID</text></g></g><g transform="translate(-142,-118) scale(1,1)"><g><path fill="none" stroke="none"/><text fill="#000000" stroke="none" font-family="Arial" font-size="13px" font-style="normal" font-weight="normal" text-decoration="none" x="579.2490234375" y="377">INTEGER</text></g></g><g transform="translate(-142,-118) scale(1,1)"><g><path fill="none" stroke="none"/><text fill="#000000" stroke="none" font-family="Arial" font-size="13px" font-style="normal" font-weight="normal" text-decoration="none" x="461" y="376.5"></text></g></g><g transform="translate(-142,-118) scale(1,1)"><g><path fill="none" stroke="none"/><text fill="#000000" stroke="none" font-family="Arial" font-size="13px" font-style="normal" font-weight="normal" text-decoration="none" x="461" y="392"></text></g></g><g transform="translate(-142,-118) scale(1,1)"><g><path fill="none" stroke="none"/><text fill="#000000" stroke="none" font-family="Arial" font-size="13px" font-style="normal" font-weight="normal" text-decoration="none" x="489.05908203125" y="392">song</text></g></g><g transform="translate(-142,-118) scale(1,1)"><g><path fill="none" stroke="none"/><text fill="#000000" stroke="none" font-family="Arial" font-size="13px" font-style="normal" font-weight="normal" text-decoration="none" x="579.2490234375" y="392">VARCHAR</text></g></g><g transform="translate(-142,-118) scale(1,1)"><g><path fill="none" stroke="none"/><text fill="#000000" stroke="none" font-family="Arial" font-size="13px" font-style="normal" font-weight="normal" text-decoration="none" x="461" y="391.5"></text></g></g><g transform="translate(-142,-118) scale(1,1)"><g><path fill="none" stroke="none"/><text fill="#000000" stroke="none" font-family="Arial" font-size="13px" font-style="normal" font-weight="normal" text-decoration="none" x="461" y="407">FK</text></g></g><g transform="translate(-142,-118) scale(1,1)"><g><path fill="none" stroke="none"/><text fill="#000000" stroke="none" font-family="Arial" font-size="13px" font-style="normal" font-weight="normal" text-decoration="none" x="489.05908203125" y="407">performer_id</text></g></g><g transform="translate(-142,-118) scale(1,1)"><g><path fill="none" stroke="none"/><text fill="#000000" stroke="none" font-family="Arial" font-size="13px" font-style="normal" font-weight="normal" text-decoration="none" x="579.2490234375" y="407">INTEGER</text></g></g><g transform="translate(-142,-118) scale(1,1)"><g><path fill="none" stroke="none"/><text fill="#000000" stroke="none" font-family="Arial" font-size="13px" font-style="normal" font-weight="normal" text-decoration="none" x="461" y="406.5"></text></g></g><g transform="translate(-142,-118) scale(1,1)"><g><path fill="none" stroke="none"/><text fill="#000000" stroke="none" font-family="Arial" font-size="13px" font-style="normal" font-weight="normal" text-decoration="none" x="461" y="422"></text></g></g><g transform="translate(-142,-118) scale(1,1)"><g><path fill="none" stroke="none"/><text fill="#000000" stroke="none" font-family="Arial" font-size="13px" font-style="normal" font-weight="normal" text-decoration="none" x="489.05908203125" y="422">durability</text></g></g><g transform="translate(-142,-118) scale(1,1)"><g><path fill="none" stroke="none"/><text fill="#000000" stroke="none" font-family="Arial" font-size="13px" font-style="normal" font-weight="normal" text-decoration="none" x="579.2490234375" y="422">TIME</text></g></g><g transform="translate(-142,-118) scale(1,1)"><g><path fill="none" stroke="none"/><text fill="#000000" stroke="none" font-family="Arial" font-size="13px" font-style="normal" font-weight="normal" text-decoration="none" x="461" y="421.5"></text></g></g><g transform="translate(-142,-118) scale(1,1)"><g><path fill="none" stroke="none"/><text fill="#000000" stroke="none" font-family="Arial" font-size="13px" font-style="normal" font-weight="normal" text-decoration="none" x="461" y="437"></text></g></g><g transform="translate(-142,-118) scale(1,1)"><g><path fill="none" stroke="none"/><text fill="#000000" stroke="none" font-family="Arial" font-size="13px" font-style="normal" font-weight="normal" text-decoration="none" x="489.05908203125" y="437">year</text></g></g><g transform="translate(-142,-118) scale(1,1)"><g><path fill="none" stroke="none"/><text fill="#000000" stroke="none" font-family="Arial" font-size="13px" font-style="normal" font-weight="normal" text-decoration="none" x="579.2490234375" y="437">DATETIME</text></g></g><g transform="translate(-142,-118) scale(1,1)"><g><path fill="none" stroke="none"/><text fill="#000000" stroke="none" font-family="Arial" font-size="13px" font-style="normal" font-weight="normal" text-decoration="none" x="461" y="436.5"></text></g></g><g transform="translate(-142,-118) scale(1,1)"><path fill="none" stroke="#000000" d="M 555 264 L 555 336" stroke-miterlimit="10"/></g><g transform="translate(-142,-118) scale(1,1)"><path fill="none" stroke="#000000" d="M 555 322 L 548 336" stroke-miterlimit="10"/></g><g transform="translate(-142,-118) scale(1,1)"><path fill="none" stroke="#000000" d="M 555 322 L 562 336" stroke-miterlimit="10"/></g><g transform="translate(-142,-118) scale(1,1)"><path fill="#FFFFFF" stroke="none" d="M 548 314 C 548 310.1340064 551.1340064 307 555 307 C 558.8659936 307 562 310.1340064 562 314 C 562 317.8659936 558.8659936 321 555 321 C 551.1340064 321 548 317.8659936 548 314 Z"/></g><g transform="translate(-142,-118) scale(1,1)"><path fill="none" stroke="#000000" d="M 548 314 C 548 310.1340064 551.1340064 307 555 307 C 558.8659936 307 562 310.1340064 562 314 C 562 317.8659936 558.8659936 321 555 321 C 551.1340064 321 548 317.8659936 548 314 Z" stroke-miterlimit="10"/></g><g transform="translate(-142,-118) scale(1,1)"><path fill="none" stroke="#000000" d="M 562 271 L 548 271" stroke-miterlimit="10"/></g><g transform="translate(-142,-118) scale(1,1)"><path fill="none" stroke="#000000" d="M 562 278 L 548 278" stroke-miterlimit="10"/></g><g transform="translate(-142,-118) scale(1,1)"><g><path fill="none" stroke="none"/><text fill="#000000" stroke="none" font-family="Arial" font-size="13px" font-style="normal" font-weight="normal" text-decoration="none" x="569.5" y="295.5"></text></g></g><g transform="translate(-142,-118) scale(1,1)"><g><path fill="none" stroke="none"/><text fill="#000000" stroke="none" font-family="Arial" font-size="13px" font-style="normal" font-weight="normal" text-decoration="none" x="569.5" y="316.5"></text></g></g><g transform="translate(-142,-118) scale(1,1)"><rect fill="#C0C0C0" stroke="none" x="159" y="439" width="194.88330078125" height="120" opacity="0.2"/></g><g transform="translate(-142,-118) scale(1,1)"><rect fill="#ffffff" stroke="none" x="152" y="432" width="194.88330078125" height="120"/></g><g transform="translate(-142,-118) scale(1,1)"><path fill="none" stroke="#000000" d="M 152 432 L 346.88330078125 432 L 346.88330078125 552 L 152 552 L 152 432 Z Z" stroke-miterlimit="10"/></g><g transform="translate(-142,-118) scale(1,1)"><path fill="none" stroke="#000000" d="M 152 455 L 346.88330078125 455" stroke-miterlimit="10"/></g><g transform="translate(-142,-118) scale(1,1)"><path fill="none" stroke="#000000" d="M 180.05908203125 455 L 180.05908203125 552" stroke-miterlimit="10"/></g><g transform="translate(-142,-118) scale(1,1)"><path fill="none" stroke="#000000" d="M 273.84814453125 455 L 273.84814453125 552" stroke-miterlimit="10"/></g><g transform="translate(-142,-118) scale(1,1)"><g><path fill="none" stroke="none"/><text fill="#000000" stroke="none" font-family="Arial" font-size="13px" font-style="normal" font-weight="bold" text-decoration="none" x="233.178955078125" y="449.5">Votes</text></g></g><g transform="translate(-142,-118) scale(1,1)"><g><path fill="none" stroke="none"/><text fill="#000000" stroke="none" font-family="Arial" font-size="13px" font-style="normal" font-weight="normal" text-decoration="none" x="157" y="473">PK</text></g></g><g transform="translate(-142,-118) scale(1,1)"><g><path fill="none" stroke="none"/><text fill="#000000" stroke="none" font-family="Arial" font-size="13px" font-style="normal" font-weight="normal" text-decoration="none" x="185.05908203125" y="473">ID</text></g></g><g transform="translate(-142,-118) scale(1,1)"><g><path fill="none" stroke="none"/><text fill="#000000" stroke="none" font-family="Arial" font-size="13px" font-style="normal" font-weight="normal" text-decoration="none" x="278.84814453125" y="473">INTEGER</text></g></g><g transform="translate(-142,-118) scale(1,1)"><g><path fill="none" stroke="none"/><text fill="#000000" stroke="none" font-family="Arial" font-size="13px" font-style="normal" font-weight="normal" text-decoration="none" x="157" y="472.5"></text></g></g><g transform="translate(-142,-118) scale(1,1)"><g><path fill="none" stroke="none"/><text fill="#000000" stroke="none" font-family="Arial" font-size="13px" font-style="normal" font-weight="normal" text-decoration="none" x="157" y="488"></text></g></g><g transform="translate(-142,-118) scale(1,1)"><g><path fill="none" stroke="none"/><text fill="#000000" stroke="none" font-family="Arial" font-size="13px" font-style="normal" font-weight="normal" text-decoration="none" x="185.05908203125" y="488">country_from</text></g></g><g transform="translate(-142,-118) scale(1,1)"><g><path fill="none" stroke="none"/><text fill="#000000" stroke="none" font-family="Arial" font-size="13px" font-style="normal" font-weight="normal" text-decoration="none" x="278.84814453125" y="488">VARCHAR</text></g></g><g transform="translate(-142,-118) scale(1,1)"><g><path fill="none" stroke="none"/><text fill="#000000" stroke="none" font-family="Arial" font-size="13px" font-style="normal" font-weight="normal" text-decoration="none" x="157" y="487.5"></text></g></g><g transform="translate(-142,-118) scale(1,1)"><g><path fill="none" stroke="none"/><text fill="#000000" stroke="none" font-family="Arial" font-size="13px" font-style="normal" font-weight="normal" text-decoration="none" x="157" y="503"></text></g></g><g transform="translate(-142,-118) scale(1,1)"><g><path fill="none" stroke="none"/><text fill="#000000" stroke="none" font-family="Arial" font-size="13px" font-style="normal" font-weight="normal" text-decoration="none" x="185.05908203125" y="503">country_to</text></g></g><g transform="translate(-142,-118) scale(1,1)"><g><path fill="none" stroke="none"/><text fill="#000000" stroke="none" font-family="Arial" font-size="13px" font-style="normal" font-weight="normal" text-decoration="none" x="278.84814453125" y="503">VARCHAR</text></g></g><g transform="translate(-142,-118) scale(1,1)"><g><path fill="none" stroke="none"/><text fill="#000000" stroke="none" font-family="Arial" font-size="13px" font-style="normal" font-weight="normal" text-decoration="none" x="157" y="502.5"></text></g></g><g transform="translate(-142,-118) scale(1,1)"><g><path fill="none" stroke="none"/><text fill="#000000" stroke="none" font-family="Arial" font-size="13px" font-style="normal" font-weight="normal" text-decoration="none" x="157" y="518"></text></g></g><g transform="translate(-142,-118) scale(1,1)"><g><path fill="none" stroke="none"/><text fill="#000000" stroke="none" font-family="Arial" font-size="13px" font-style="normal" font-weight="normal" text-decoration="none" x="185.05908203125" y="518">points</text></g></g><g transform="translate(-142,-118) scale(1,1)"><g><path fill="none" stroke="none"/><text fill="#000000" stroke="none" font-family="Arial" font-size="13px" font-style="normal" font-weight="normal" text-decoration="none" x="278.84814453125" y="518">INTEGER</text></g></g><g transform="translate(-142,-118) scale(1,1)"><g><path fill="none" stroke="none"/><text fill="#000000" stroke="none" font-family="Arial" font-size="13px" font-style="normal" font-weight="normal" text-decoration="none" x="157" y="517.5"></text></g></g><g transform="translate(-142,-118) scale(1,1)"><g><path fill="none" stroke="none"/><text fill="#000000" stroke="none" font-family="Arial" font-size="13px" font-style="normal" font-weight="normal" text-decoration="none" x="157" y="533"></text></g></g><g transform="translate(-142,-118) scale(1,1)"><g><path fill="none" stroke="none"/><text fill="#000000" stroke="none" font-family="Arial" font-size="13px" font-style="normal" font-weight="normal" text-decoration="none" x="185.05908203125" y="533">type</text></g></g><g transform="translate(-142,-118) scale(1,1)"><g><path fill="none" stroke="none"/><text fill="#000000" stroke="none" font-family="Arial" font-size="13px" font-style="normal" font-weight="normal" text-decoration="none" x="278.84814453125" y="533">VARCHAR</text></g></g><g transform="translate(-142,-118) scale(1,1)"><g><path fill="none" stroke="none"/><text fill="#000000" stroke="none" font-family="Arial" font-size="13px" font-style="normal" font-weight="normal" text-decoration="none" x="157" y="532.5"></text></g></g><g transform="translate(-142,-118) scale(1,1)"><g><path fill="none" stroke="none"/><text fill="#000000" stroke="none" font-family="Arial" font-size="13px" font-style="normal" font-weight="normal" text-decoration="none" x="157" y="548">FK</text></g></g><g transform="translate(-142,-118) scale(1,1)"><g><path fill="none" stroke="none"/><text fill="#000000" stroke="none" font-family="Arial" font-size="13px" font-style="normal" font-weight="normal" text-decoration="none" x="185.05908203125" y="548">event_id</text></g></g><g transform="translate(-142,-118) scale(1,1)"><g><path fill="none" stroke="none"/><text fill="#000000" stroke="none" font-family="Arial" font-size="13px" font-style="normal" font-weight="normal" text-decoration="none" x="278.84814453125" y="548">INT</text></g></g><g transform="translate(-142,-118) scale(1,1)"><g><path fill="none" stroke="none"/><text fill="#000000" stroke="none" font-family="Arial" font-size="13px" font-style="normal" font-weight="normal" text-decoration="none" x="157" y="547.5"></text></g></g><g transform="translate(-142,-118) scale(1,1)"><path fill="none" stroke="#000000" d="M 338 234 L 464 234" stroke-miterlimit="10"/></g><g transform="translate(-142,-118) scale(1,1)"><path fill="none" stroke="#000000" d="M 450 234 L 464 241" stroke-miterlimit="10"/></g><g transform="translate(-142,-118) scale(1,1)"><path fill="none" stroke="#000000" d="M 450 234 L 464 227" stroke-miterlimit="10"/></g><g transform="translate(-142,-118) scale(1,1)"><path fill="#FFFFFF" stroke="none" d="M 435 234 C 435 230.1340064 438.1340064 227 442 227 C 445.8659936 227 449 230.1340064 449 234 C 449 237.8659936 445.8659936 241 442 241 C 438.1340064 241 435 237.8659936 435 234 Z"/></g><g transform="translate(-142,-118) scale(1,1)"><path fill="none" stroke="#000000" d="M 435 234 C 435 230.1340064 438.1340064 227 442 227 C 445.8659936 227 449 230.1340064 449 234 C 449 237.8659936 445.8659936 241 442 241 C 438.1340064 241 435 237.8659936 435 234 Z" stroke-miterlimit="10"/></g><g transform="translate(-142,-118) scale(1,1)"><path fill="none" stroke="#000000" d="M 352 234 L 338 227" stroke-miterlimit="10"/></g><g transform="translate(-142,-118) scale(1,1)"><path fill="none" stroke="#000000" d="M 352 234 L 338 241" stroke-miterlimit="10"/></g><g transform="translate(-142,-118) scale(1,1)"><path fill="#FFFFFF" stroke="none" d="M 353 234 C 353 230.1340064 356.1340064 227 360 227 C 363.8659936 227 367 230.1340064 367 234 C 367 237.8659936 363.8659936 241 360 241 C 356.1340064 241 353 237.8659936 353 234 Z"/></g><g transform="translate(-142,-118) scale(1,1)"><path fill="none" stroke="#000000" d="M 353 234 C 353 230.1340064 356.1340064 227 360 227 C 363.8659936 227 367 230.1340064 367 234 C 367 237.8659936 363.8659936 241 360 241 C 356.1340064 241 353 237.8659936 353 234 Z" stroke-miterlimit="10"/></g><g transform="translate(-142,-118) scale(1,1)"><g><path fill="none" stroke="none"/><text fill="#000000" stroke="none" font-family="Arial" font-size="13px" font-style="normal" font-weight="normal" text-decoration="none" x="362.5" y="225.5"></text></g></g><g transform="translate(-142,-118) scale(1,1)"><g><path fill="none" stroke="none"/><text fill="#000000" stroke="none" font-family="Arial" font-size="13px" font-style="normal" font-weight="normal" text-decoration="none" x="437.5" y="225.5"></text></g></g><g transform="translate(-142,-118) scale(1,1)"><path fill="none" stroke="#000000" d="M 240 278 L 240 432" stroke-miterlimit="10"/></g><g transform="translate(-142,-118) scale(1,1)"><path fill="none" stroke="#000000" d="M 240 418 L 233 432" stroke-miterlimit="10"/></g><g transform="translate(-142,-118) scale(1,1)"><path fill="none" stroke="#000000" d="M 240 418 L 247 432" stroke-miterlimit="10"/></g><g transform="translate(-142,-118) scale(1,1)"><path fill="#FFFFFF" stroke="none" d="M 233 410 C 233 406.1340064 236.1340064 403 240 403 C 243.8659936 403 247 406.1340064 247 410 C 247 413.8659936 243.8659936 417 240 417 C 236.1340064 417 233 413.8659936 233 410 Z"/></g><g transform="translate(-142,-118) scale(1,1)"><path fill="none" stroke="#000000" d="M 233 410 C 233 406.1340064 236.1340064 403 240 403 C 243.8659936 403 247 406.1340064 247 410 C 247 413.8659936 243.8659936 417 240 417 C 236.1340064 417 233 413.8659936 233 410 Z" stroke-miterlimit="10"/></g><g transform="translate(-142,-118) scale(1,1)"><path fill="none" stroke="#000000" d="M 247 285 L 233 285" stroke-miterlimit="10"/></g><g transform="translate(-142,-118) scale(1,1)"><path fill="none" stroke="#000000" d="M 247 292 L 233 292" stroke-miterlimit="10"/></g><g transform="translate(-142,-118) scale(1,1)"><g><path fill="none" stroke="none"/><text fill="#000000" stroke="none" font-family="Arial" font-size="13px" font-style="normal" font-weight="normal" text-decoration="none" x="254.5" y="309.5"></text></g></g><g transform="translate(-142,-118) scale(1,1)"><g><path fill="none" stroke="none"/><text fill="#000000" stroke="none" font-family="Arial" font-size="13px" font-style="normal" font-weight="normal" text-decoration="none" x="254.5" y="412.5"></text></g></g></g></svg>